<svg xmlns="http://www.w3.org/2000/svg" viewBox="0 0 64 64" role="img" aria-label="EgressAI">
  <defs>
    <linearGradient id="egBadge" x1="32" y1="2" x2="32" y2="62" gradientUnits="userSpaceOnUse">
      <stop offset="0" stop-color="#141d2f" />
      <stop offset="1" stop-color="#05070d" />
    </linearGradient>
    <linearGradient id="egFlow" x1="16" y1="18" x2="50" y2="46" gradientUnits="userSpaceOnUse">
      <stop offset="0" stop-color="#2dd4ee" />
      <stop offset="0.55" stop-color="#38bdf8" />
      <stop offset="1" stop-color="#6366f1" />
    </linearGradient>
    <radialGradient id="egGloss" cx="0.3" cy="0.1" r="0.85">
      <stop offset="0" stop-color="#ffffff" stop-opacity="0.18" />
      <stop offset="0.55" stop-color="#ffffff" stop-opacity="0" />
    </radialGradient>
    <filter id="egShadow" x="-30%" y="-30%" width="160%" height="160%">
      <feDropShadow dx="0" dy="1.4" stdDeviation="1.3" flood-color="#020409" flood-opacity="0.55" />
    </filter>
  </defs>

  <rect x="3" y="3" width="58" height="58" rx="16" fill="url(#egBadge)" />
  <rect x="3" y="3" width="58" height="58" rx="16" fill="url(#egGloss)" />
  <rect x="3.75" y="3.75" width="56.5" height="56.5" rx="15.25" fill="none" stroke="url(#egFlow)" stroke-width="1.1" opacity="0.55" />

  <g filter="url(#egShadow)">
    <rect x="15.5" y="17" width="4.6" height="30" rx="2.3" fill="url(#egFlow)" />
    <rect x="43.9" y="17" width="4.6" height="30" rx="2.3" fill="url(#egFlow)" />
  </g>

  <g fill="none" stroke="url(#egFlow)" stroke-linecap="round" stroke-linejoin="round">
    <path d="M21 24 Q31 27.5 39 25.5" stroke-width="2.1" opacity="0.5" />
    <path d="M21 40 Q31 36.5 39 38.5" stroke-width="2.1" opacity="0.5" />
    <path d="M22 32 H37" stroke-width="3.6" />
    <path d="M31.5 26 L40 32 L31.5 38" stroke-width="3.6" />
  </g>
</svg>
